<mxfile host="Electron" modified="2023-12-04T08:30:55.600Z" agent="Mozilla/5.0 (Macintosh; Intel Mac OS X 10_15_7) AppleWebKit/537.36 (KHTML, like Gecko) draw.io/22.1.2 Chrome/114.0.5735.289 Electron/25.9.4 Safari/537.36" etag="N_24ahNaMA8huiI2ov5S" version="22.1.2" type="device">
  <diagram name="第 1 页" id="78IRe00lYUG21xs1XzAB">
    <mxGraphModel dx="1026" dy="658" grid="1" gridSize="10" guides="1" tooltips="1" connect="1" arrows="1" fold="1" page="1" pageScale="1" pageWidth="827" pageHeight="1169" math="0" shadow="0">
      <root>
        <mxCell id="0" />
        <mxCell id="1" parent="0" />
        <mxCell id="n66646HsvoEJpG5I6vTq-3" value="1" style="ellipse;whiteSpace=wrap;html=1;aspect=fixed;fontSize=24;" vertex="1" parent="1">
          <mxGeometry x="40" y="120" width="80" height="80" as="geometry" />
        </mxCell>
        <mxCell id="n66646HsvoEJpG5I6vTq-14" style="rounded=0;orthogonalLoop=1;jettySize=auto;html=1;strokeWidth=3;" edge="1" parent="1" source="n66646HsvoEJpG5I6vTq-5" target="n66646HsvoEJpG5I6vTq-3">
          <mxGeometry relative="1" as="geometry" />
        </mxCell>
        <mxCell id="n66646HsvoEJpG5I6vTq-15" style="rounded=0;orthogonalLoop=1;jettySize=auto;html=1;strokeWidth=3;" edge="1" parent="1" source="n66646HsvoEJpG5I6vTq-5" target="n66646HsvoEJpG5I6vTq-6">
          <mxGeometry relative="1" as="geometry" />
        </mxCell>
        <mxCell id="n66646HsvoEJpG5I6vTq-5" value="f" style="ellipse;whiteSpace=wrap;html=1;aspect=fixed;fontSize=24;strokeWidth=3;" vertex="1" parent="1">
          <mxGeometry x="120" y="40" width="80" height="80" as="geometry" />
        </mxCell>
        <mxCell id="n66646HsvoEJpG5I6vTq-16" style="rounded=0;orthogonalLoop=1;jettySize=auto;html=1;strokeWidth=3;" edge="1" parent="1" source="n66646HsvoEJpG5I6vTq-6" target="n66646HsvoEJpG5I6vTq-9">
          <mxGeometry relative="1" as="geometry" />
        </mxCell>
        <mxCell id="n66646HsvoEJpG5I6vTq-17" style="rounded=0;orthogonalLoop=1;jettySize=auto;html=1;strokeWidth=3;" edge="1" parent="1" source="n66646HsvoEJpG5I6vTq-6" target="n66646HsvoEJpG5I6vTq-8">
          <mxGeometry relative="1" as="geometry" />
        </mxCell>
        <mxCell id="n66646HsvoEJpG5I6vTq-6" value="f" style="ellipse;whiteSpace=wrap;html=1;aspect=fixed;fontSize=24;strokeWidth=3;" vertex="1" parent="1">
          <mxGeometry x="240" y="80" width="80" height="80" as="geometry" />
        </mxCell>
        <mxCell id="n66646HsvoEJpG5I6vTq-20" style="rounded=0;orthogonalLoop=1;jettySize=auto;html=1;strokeWidth=3;" edge="1" parent="1" source="n66646HsvoEJpG5I6vTq-7" target="n66646HsvoEJpG5I6vTq-11">
          <mxGeometry relative="1" as="geometry" />
        </mxCell>
        <mxCell id="n66646HsvoEJpG5I6vTq-21" style="rounded=0;orthogonalLoop=1;jettySize=auto;html=1;strokeWidth=3;" edge="1" parent="1" source="n66646HsvoEJpG5I6vTq-7" target="n66646HsvoEJpG5I6vTq-12">
          <mxGeometry relative="1" as="geometry" />
        </mxCell>
        <mxCell id="n66646HsvoEJpG5I6vTq-7" value="f" style="ellipse;whiteSpace=wrap;html=1;aspect=fixed;fontSize=24;strokeWidth=3;" vertex="1" parent="1">
          <mxGeometry x="480" y="160" width="80" height="80" as="geometry" />
        </mxCell>
        <mxCell id="n66646HsvoEJpG5I6vTq-18" style="rounded=0;orthogonalLoop=1;jettySize=auto;html=1;strokeWidth=3;" edge="1" parent="1" source="n66646HsvoEJpG5I6vTq-8" target="n66646HsvoEJpG5I6vTq-10">
          <mxGeometry relative="1" as="geometry" />
        </mxCell>
        <mxCell id="n66646HsvoEJpG5I6vTq-19" style="rounded=0;orthogonalLoop=1;jettySize=auto;html=1;strokeWidth=3;" edge="1" parent="1" source="n66646HsvoEJpG5I6vTq-8" target="n66646HsvoEJpG5I6vTq-7">
          <mxGeometry relative="1" as="geometry" />
        </mxCell>
        <mxCell id="n66646HsvoEJpG5I6vTq-8" value="f" style="ellipse;whiteSpace=wrap;html=1;aspect=fixed;fontSize=24;strokeWidth=3;" vertex="1" parent="1">
          <mxGeometry x="360" y="120" width="80" height="80" as="geometry" />
        </mxCell>
        <mxCell id="n66646HsvoEJpG5I6vTq-9" value="2" style="ellipse;whiteSpace=wrap;html=1;aspect=fixed;fontSize=24;" vertex="1" parent="1">
          <mxGeometry x="160" y="160" width="80" height="80" as="geometry" />
        </mxCell>
        <mxCell id="n66646HsvoEJpG5I6vTq-10" value="3" style="ellipse;whiteSpace=wrap;html=1;aspect=fixed;fontSize=24;" vertex="1" parent="1">
          <mxGeometry x="280" y="200" width="80" height="80" as="geometry" />
        </mxCell>
        <mxCell id="n66646HsvoEJpG5I6vTq-11" value="Nil" style="ellipse;whiteSpace=wrap;html=1;aspect=fixed;fontSize=24;" vertex="1" parent="1">
          <mxGeometry x="400" y="240" width="80" height="80" as="geometry" />
        </mxCell>
        <mxCell id="n66646HsvoEJpG5I6vTq-12" value="b" style="ellipse;whiteSpace=wrap;html=1;aspect=fixed;fontSize=24;" vertex="1" parent="1">
          <mxGeometry x="560" y="240" width="80" height="80" as="geometry" />
        </mxCell>
      </root>
    </mxGraphModel>
  </diagram>
</mxfile>
